<svg xmlns="http://www.w3.org/2000/svg" width="135" height="44" fill="none"><rect width="44" height="44" fill="#E7F352" rx="22"/><path fill="#04303B" d="M36.736 19.607c.248 2.04-1.981 11.887-8.702 14.955 4.986-2.775 11.694-15.793 4.986-22.043-1.064-.693-2.135-1.014-3.04-1.177 9.779 3.41 1.578 27.004-14.58 23.846A14.5 14.5 0 0 0 22.44 37c9.742 0 15.94-9.037 14.296-17.393"/><path fill="#04303B" d="M14.232 32.329c-.196.856-.905.802-2.703-1.54C3.626 20.503 23.754 6.692 33.02 12.519c-5.43-5.667-14.876-6.269-20.87-.294A14.4 14.4 0 0 0 8 20.811c.766-2.29 6.183-12.277 17.374-10.595-6.603-.36-11.918 3.468-14.696 7.153C6.628 22.723 8.537 29.72 12.6 33.16c1.185.68 1.532-.04 1.632-.832Z"/><path fill="#04303B" d="M13.586 27.131c.175.965.923 3.988.646 5.198-.1.793-.447 1.513-1.632.832 2.808 2.308 2.705-3.086 6.277-7.975.12-.163-.16-4.163-.03-4.326.072-.091.548 3.654.624 3.564a15 15 0 0 1 2.169-2.145c.084-.067.485-2.847.573-2.914.075-.057-.166 2.596-.088 2.542.926-.684 2.838-1.683 4.075-2.2-.618.363-2.407 1.452-3.224 2.157l2.97-.2s-3.435.606-3.528.696c-.38.357-1.707 1.8-3.023 3.918-.081.133 4.241-.532 4.16-.396-.088.145-4.576 1.092-4.663 1.243-.854 1.504-1.65 3.274-2.115 5.195 13.76 3.46 13.845-14.951 13.902-19.42-3.637 5.316-19.093 3.388-17.093 14.231M54.053 32V14.504H66.51v2.88h-9.12v4.512h7.895v2.856H57.39V32zm17.07.24c-2.855 0-4.56-1.56-4.56-3.864 0-2.544 1.8-3.792 4.273-4.224l2.952-.528c1.176-.192 1.512-.648 1.512-1.44 0-1.032-.672-1.68-2.352-1.68-1.776 0-2.832.744-2.808 2.28l-3.072-.36c0-2.76 2.352-4.368 5.928-4.368 3.792 0 5.592 1.536 5.592 4.296v6.24c0 .864.384 1.056.84 1.056.216 0 .336-.024.384-.072h.144v2.328c-.408.192-1.128.288-1.584.288-1.488 0-2.496-.648-2.64-1.992l-.024-.336c-.744 1.488-2.496 2.376-4.584 2.376Zm.985-2.448c1.68 0 2.928-.792 3.264-2.16v-2.184c-.36.168-.864.288-1.608.432l-1.848.36c-1.536.312-1.992 1.032-1.992 1.848 0 1.128.864 1.704 2.184 1.704M81.62 32V18.296h3l.144 2.136c.744-1.56 1.824-2.304 3.288-2.304.456 0 .888.048 1.152.144v3.096h-.144a3.1 3.1 0 0 0-1.056-.168c-1.728 0-2.856 1.008-3.072 2.664V32zm9.299 0V18.296h2.976l.216 1.968c.936-1.536 2.4-2.208 3.936-2.208 1.848 0 3.384.864 4.128 2.592.792-1.632 2.424-2.592 4.296-2.592 2.976 0 4.632 1.848 4.632 4.656V32h-3.312v-8.52c0-1.56-.744-2.544-2.256-2.544-1.704 0-2.88 1.104-2.88 3.144V32h-3.312v-8.376c0-1.608-.672-2.688-2.28-2.688-1.728 0-2.832 1.296-2.832 3.072V32H90.92Zm23.667-15.744v-3.264h3.264v3.264zM114.563 32V18.296h3.288V32zm12.606.24c-4.104 0-6.744-2.832-6.744-7.08 0-4.272 2.64-7.104 6.744-7.104s6.744 2.832 6.744 7.104-2.64 7.08-6.744 7.08m0-2.712c2.184 0 3.456-1.608 3.456-4.392s-1.272-4.368-3.456-4.368-3.456 1.632-3.456 4.392 1.272 4.368 3.456 4.368"/></svg>